<svg id="Layer_1" enable-background="new 0 0 512.058 512.058" height="512" viewBox="0 0 512.058 512.058" width="512" xmlns="http://www.w3.org/2000/svg"><g><g><path d="m65.897 191.293h-33.013c-8.284 0-15 6.716-15 15s6.716 15 15 15h18.013v99.829c0 8.284 6.716 15 15 15s15-6.716 15-15v-114.829c0-8.284-6.716-15-15-15z" fill="#00465f"/><path d="m169.999 190.11c-16.891 0-32.542 8.066-44.069 22.713-10.694 13.589-16.584 31.45-16.584 50.294s5.89 36.705 16.584 50.294c11.527 14.646 27.178 22.712 44.068 22.712s32.542-8.066 44.069-22.712c10.695-13.589 16.584-31.45 16.584-50.294s-5.89-36.705-16.584-50.294c-11.526-14.647-27.177-22.713-44.068-22.713zm0 116.012c-16.616 0-30.653-19.694-30.653-43.006 0-23.313 14.037-43.007 30.653-43.007s30.653 19.694 30.653 43.007c0 23.312-14.037 43.006-30.653 43.006z" fill="#00465f"/><g fill="#001e2a"><path d="m317.163 190.11c-16.891 0-32.542 8.066-44.069 22.713-10.694 13.589-16.584 31.45-16.584 50.294s5.89 36.705 16.584 50.294c11.527 14.646 27.179 22.712 44.069 22.712s32.542-8.066 44.069-22.712c10.694-13.589 16.584-31.45 16.584-50.294s-5.89-36.705-16.584-50.294c-11.527-14.647-27.178-22.713-44.069-22.713zm0 116.012c-16.616 0-30.653-19.694-30.653-43.006 0-23.313 14.037-43.007 30.653-43.007s30.653 19.694 30.653 43.007c0 23.312-14.037 43.006-30.653 43.006z"/><path d="m478.468 192.129c-7.476-3.576-16.43-.418-20.006 7.055l-55.631 116.246c-3.576 7.473-.418 16.43 7.055 20.006 2.09 1 4.294 1.474 6.465 1.474 5.596 0 10.965-3.145 13.541-8.528l55.631-116.246c3.576-7.473.418-16.431-7.055-20.007z"/><circle cx="409.283" cy="205.66" r="15"/><circle cx="479.174" cy="321.906" r="15"/></g></g><g><g><path d="m129.353 133.429c-8.866.876-15.541-7.9-12.376-16.227l16.046-42.217c22.452-60.047 91.708-90.37 149.589-67.192l-.008-.003c37.858 17.685 56.103 62.116 40.927 101.791-6.208 16.229-17.202 29.337-30.786 38.292-23.463 15.467-53.409 16.989-78.779 4.901-37.62-17.924-64.869-21.295-84.613-19.345z" fill="#8cea79"/><g><path d="m133.583 113.15-15.172 15.269c2.353 3.323 6.354 5.463 10.948 5.01 19.745-1.95 46.993 1.421 84.614 19.346 25.37 12.087 55.316 10.566 78.779-4.901 13.585-8.955 24.579-22.064 30.786-38.292 5.171-13.518 6.303-24.365 4.261-37.741-67.815-23.854-143.351-9.882-194.216 41.309z" fill="#00e1c0"/></g></g><path d="m328.874 52.057c-7.212-18.975-21.481-35.167-40.964-44.268l.008.003c-57.882-23.178-127.137 7.145-149.589 67.192l-11.263 29.634 6.361 21.128c52.445-52.781 126.723-63.363 195.447-73.689z" fill="#8cea79"/><path d="m386.681 73.456-43.905-16.688c-4.599-1.748-9.236-3.316-13.902-4.71 3.861 10.158 5.695 21.11 5.211 32.209l42.366 16.103c7.432 2.823 15.747-.911 18.572-8.342 2.825-7.433-.91-15.748-8.342-18.572z" fill="#005357"/><path d="m248.132 0v66.594c26.687-6.51 54.131-10.538 80.742-14.537-7.212-18.975-21.481-35.178-40.964-44.279l.008.003c-12.912-5.17-26.389-7.671-39.786-7.781z" fill="#00dd7b"/><path d="m248.25 61.537v98.999c17.366 1.391 34.963-2.792 49.924-12.655 13.585-8.955 24.579-22.064 30.786-38.292 5.171-13.518 6.303-24.365 4.261-37.741-27.771-9.767-56.835-13.187-84.971-10.311z" fill="#00bd9f"/><path d="m328.745 52.409c-72.291-21.589-151.371-4.223-205.099 49.848l-1.62 1.655-5.103 13.526c-3.243 8.531 3.402 17.064 12.857 15.989 1.559-.177 3.175-.271 4.83-.356l9.96-10.023c49.079-49.393 126.936-66.946 187.936-40.584l1.577.599c.496-11.37-1.383-20.247-5.338-30.654z" fill="#00bd9f"/><path d="m248.132 44.241.12 27.599c27.97-3.809 56.862 1.415 84.294 11.842l1.63.618c.484-11.099-1.441-22.083-5.302-32.242-26.533-7.925-54.003-10.932-80.742-7.817z" fill="#009985"/></g><g><g><path d="m367.158 378.571c8.866-.876 15.541 7.9 12.376 16.227l-16.046 42.217c-22.452 60.047-91.708 90.37-149.589 67.192l.008.003c-37.858-17.685-56.103-62.116-40.927-101.792 6.208-16.229 17.202-29.337 30.786-38.292 23.463-15.467 53.409-16.989 78.779-4.901 37.62 17.925 64.868 21.296 84.613 19.346z" fill="#8cea79"/><g><path d="m362.928 398.85 15.172-15.269c-2.353-3.323-6.354-5.463-10.948-5.01-19.745 1.95-46.993-1.421-84.614-19.346-25.37-12.087-55.316-10.566-78.779 4.901-13.585 8.955-24.579 22.064-30.786 38.292-5.171 13.518-6.303 24.365-4.261 37.741 67.815 23.854 143.35 9.882 194.216-41.309z" fill="#00bd9f"/></g></g><path d="m167.636 459.943c7.212 18.975 21.481 35.167 40.964 44.268l-.008-.003c62.791 23.113 135.883-6.451 154.894-67.192l10.997-28.928-11.4-21.834c-52.445 52.781-126.723 63.363-195.447 73.689z" fill="#00dd7b"/><path d="m109.829 438.544 43.905 16.688c4.599 1.748 9.236 3.316 13.902 4.71-3.861-10.159-5.695-21.11-5.211-32.209l-42.366-16.103c-7.432-2.823-15.747.911-18.572 8.342-2.825 7.433.91 15.748 8.342 18.572z" fill="#007779"/><path d="m248.379 512v-66.594c-26.687 6.51-54.131 10.538-80.742 14.537 7.212 18.975 21.481 35.178 40.964 44.279l-.008-.003c12.911 5.17 26.388 7.671 39.786 7.781z" fill="#8cea79"/><path d="m248.261 450.463v-99c-17.366-1.391-34.963 2.792-49.924 12.655-13.585 8.955-24.579 22.064-30.786 38.292-5.171 13.518-6.303 24.365-4.261 37.741 27.77 9.768 56.835 13.188 84.971 10.312z" fill="#00e1c0"/><path d="m167.765 459.591c72.291 21.589 151.371 4.223 205.099-49.848l1.62-1.655 5.103-13.526c3.243-8.531-3.402-17.064-12.857-15.989-1.559.177-3.175.271-4.83.356l-9.96 10.023c-49.079 49.393-126.936 66.946-187.936 40.584l-1.577-.599c-.496 11.37 1.383 20.247 5.338 30.654z" fill="#009985"/><path d="m248.379 467.759-.12-27.599c-27.97 3.809-56.862-1.415-84.294-11.842l-1.63-.618c-.484 11.099 1.441 22.083 5.302 32.242 26.532 7.924 54.002 10.932 80.742 7.817z" fill="#00bd9f"/></g></g></svg>