<?xml version="1.0" encoding="iso-8859-1"?>
<!-- Generator: Adobe Illustrator 19.0.0, SVG Export Plug-In . SVG Version: 6.00 Build 0)  -->
<svg version="1.1" id="Capa_1" xmlns="http://www.w3.org/2000/svg" xmlns:xlink="http://www.w3.org/1999/xlink" x="0px" y="0px"
	 viewBox="0 0 512 512" style="enable-background:new 0 0 512 512;" xml:space="preserve">
<g>
	<g>
		<path d="M256,0C116.519,0,0,116.134,0,256c0,139.481,116.134,256,256,256c139.487,0,256-116.14,256-256
			C512,116.513,395.86,0,256,0z M256,482.01c-57.239-0.005-114.497-22.309-159.099-66.911
			C11.255,329.454,7.845,197.225,86.639,107.852l40.494,40.494C123.176,158.474,121,169.487,121,181v150c0,49.626,40.374,90,90,90
			c22.585,0,43.708-8.201,60.057-22.93C286.984,412.321,307.996,421,331,421c19.41,0,37.403-6.177,52.12-16.667l21.028,21.028
			C361.321,463.121,308.673,482.015,256,482.01z M361.454,382.667C352.52,387.953,342.112,391,331,391c-33.084,0-60-26.916-60-60
			c0-11.112,3.047-21.52,8.333-30.454L361.454,382.667z M300.546,279.333C309.48,274.047,319.889,271,331,271
			c33.084,0,60,26.916,60,60c0,11.111-3.047,21.52-8.333,30.454L300.546,279.333z M271,249.787L164.433,143.22
			C175.443,129.675,192.225,121,211,121c33.084,0,60,26.916,60,60V249.787z M219.787,241H151v-60c0-2.787,0.207-5.524,0.576-8.211
			L219.787,241z M249.787,271l7.88,7.88C247.177,293.597,241,311.59,241,331c0,15.793,4.094,30.646,11.27,43.563
			C241.206,385.102,226.628,391,211,391c-33.084,0-60-26.916-60-60v-60H249.787z M425.362,404.148l-21.028-21.028
			C414.823,368.403,421,350.409,421,331c0-49.626-40.374-90-90-90c-10.515,0-20.612,1.819-30,5.148V181c0-49.626-40.374-90-90-90
			c-27.044,0-51.339,11.992-67.851,30.936l-35.297-35.297C150.677,48.884,203.334,29.99,256,29.99
			c57.246,0,114.492,22.304,159.1,66.911C500.745,182.546,504.155,314.775,425.362,404.148z"/>
	</g>
</g>
<g>
</g>
<g>
</g>
<g>
</g>
<g>
</g>
<g>
</g>
<g>
</g>
<g>
</g>
<g>
</g>
<g>
</g>
<g>
</g>
<g>
</g>
<g>
</g>
<g>
</g>
<g>
</g>
<g>
</g>
</svg>
